<?xml version="1.0" encoding="UTF-8"?>
<!--
        X-axis calculation ~ The number of chapters is: 12
        To spread the data evenly, the x-axis should be this long: 600-->
<!--
        Y-axis calculation ~ The maximum number of times Alice speaks in one chapter is: 61
        To spread the graph upwards evenly, the y-asis should be this long: -3050-->
<svg xmlns="http://www.w3.org/2000/svg"
     width="800"
     height="4500"
     viewBox="0 0 800 4500">
   <g transform="translate(200 600)">
      <line x1="0"
            y1="0"
            x2="600"
            y2="0"
            stroke="black"
            stroke-width="4"/>
      <line x1="0"
            y1="0"
            x2="0"
            y2="-3100"
            stroke="black"
            stroke-width="4"/>
      <!--What is the value of $Pos? 1-->
      <text x="25" y="50" fill="blue" text-anchor="middle">1</text>
      <circle cx="25" cy="-1250" r="4" fill="blue"/>
      <line x1="25"
            y1="-1250"
            x2="26"
            y2="2"
            stroke="black"
            stroke-width="2"/>
      <!--What is the value of $Pos? 2-->
      <text x="75" y="50" fill="blue" text-anchor="middle">2</text>
      <circle cx="75" cy="-1600" r="4" fill="blue"/>
      <line x1="75"
            y1="-1600"
            x2="27"
            y2="3"
            stroke="black"
            stroke-width="2"/>
      <!--What is the value of $Pos? 3-->
      <text x="125" y="50" fill="blue" text-anchor="middle">3</text>
      <circle cx="125" cy="-2300" r="4" fill="blue"/>
      <line x1="125"
            y1="-2300"
            x2="28"
            y2="4"
            stroke="black"
            stroke-width="2"/>
      <!--What is the value of $Pos? 4-->
      <text x="175" y="50" fill="blue" text-anchor="middle">4</text>
      <circle cx="175" cy="-1850" r="4" fill="blue"/>
      <line x1="175"
            y1="-1850"
            x2="29"
            y2="5"
            stroke="black"
            stroke-width="2"/>
      <!--What is the value of $Pos? 5-->
      <text x="225" y="50" fill="blue" text-anchor="middle">5</text>
      <circle cx="225" cy="-2600" r="4" fill="blue"/>
      <line x1="225"
            y1="-2600"
            x2="30"
            y2="6"
            stroke="black"
            stroke-width="2"/>
      <!--What is the value of $Pos? 6-->
      <text x="275" y="50" fill="blue" text-anchor="middle">6</text>
      <circle cx="275" cy="-3050" r="4" fill="blue"/>
      <line x1="275"
            y1="-3050"
            x2="31"
            y2="7"
            stroke="black"
            stroke-width="2"/>
      <!--What is the value of $Pos? 7-->
      <text x="325" y="50" fill="blue" text-anchor="middle">7</text>
      <circle cx="325" cy="-1050" r="4" fill="blue"/>
      <line x1="325"
            y1="-1050"
            x2="32"
            y2="8"
            stroke="black"
            stroke-width="2"/>
      <!--What is the value of $Pos? 8-->
      <text x="375" y="50" fill="blue" text-anchor="middle">8</text>
      <circle cx="375" cy="-2000" r="4" fill="blue"/>
      <line x1="375"
            y1="-2000"
            x2="33"
            y2="9"
            stroke="black"
            stroke-width="2"/>
      <!--What is the value of $Pos? 9-->
      <text x="425" y="50" fill="blue" text-anchor="middle">9</text>
      <circle cx="425" cy="-2850" r="4" fill="blue"/>
      <line x1="425"
            y1="-2850"
            x2="34"
            y2="10"
            stroke="black"
            stroke-width="2"/>
      <!--What is the value of $Pos? 10-->
      <text x="475" y="50" fill="blue" text-anchor="middle">10</text>
      <circle cx="475" cy="0" r="4" fill="blue"/>
      <line x1="475"
            y1="0"
            x2="35"
            y2="11"
            stroke="black"
            stroke-width="2"/>
      <!--What is the value of $Pos? 11-->
      <text x="525" y="50" fill="blue" text-anchor="middle">11</text>
      <circle cx="525" cy="0" r="4" fill="blue"/>
      <line x1="525"
            y1="0"
            x2="36"
            y2="12"
            stroke="black"
            stroke-width="2"/>
      <!--What is the value of $Pos? 12-->
      <text x="575" y="50" fill="blue" text-anchor="middle">12</text>
      <circle cx="575" cy="-450" r="4" fill="blue"/>
   </g>
</svg>
